<?xml version="1.0" standalone="no"?>
<!DOCTYPE svg PUBLIC "-//W3C//DTD SVG 1.1//EN" "http://www.w3.org/Graphics/SVG/1.1/DTD/svg11.dtd" >
<svg xmlns="http://www.w3.org/2000/svg">
<metadata>
Created by FontForge 20120731 at Mon Apr 24 11:44:18 2017
 By admin
</metadata>
<defs>
<font id="iconfont" horiz-adv-x="1024" >
  <font-face 
    font-family="iconfont"
    font-weight="500"
    font-stretch="normal"
    units-per-em="1024"
    panose-1="2 0 6 3 0 0 0 0 0 0"
    ascent="896"
    descent="-128"
    x-height="792"
    bbox="32 -96 992 864"
    underline-thickness="0"
    underline-position="0"
    unicode-range="U+0078-E73A"
  />
<missing-glyph 
 />
    <glyph glyph-name=".notdef" 
 />
    <glyph glyph-name=".notdef" 
 />
    <glyph glyph-name=".null" horiz-adv-x="0" 
 />
    <glyph glyph-name="nonmarkingreturn" horiz-adv-x="341" 
 />
    <glyph glyph-name="x" unicode="x" horiz-adv-x="1001" 
d="M281 543q-27 -1 -53 -1h-83q-18 0 -36.5 -6t-32.5 -18.5t-23 -32t-9 -45.5v-76h912v41q0 16 -0.5 30t-0.5 18q0 13 -5 29t-17 29.5t-31.5 22.5t-49.5 9h-133v-97h-438v97zM955 310v-52q0 -23 0.5 -52t0.5 -58t-10.5 -47.5t-26 -30t-33 -16t-31.5 -4.5q-14 -1 -29.5 -0.5
t-29.5 0.5h-32l-45 128h-439l-44 -128h-29h-34q-20 0 -45 1q-25 0 -41 9.5t-25.5 23t-13.5 29.5t-4 30v167h911zM163 247q-12 0 -21 -8.5t-9 -21.5t9 -21.5t21 -8.5q13 0 22 8.5t9 21.5t-9 21.5t-22 8.5zM316 123q-8 -26 -14 -48q-5 -19 -10.5 -37t-7.5 -25t-3 -15t1 -14.5
t9.5 -10.5t21.5 -4h37h67h81h80h64h36q23 0 34 12t2 38q-5 13 -9.5 30.5t-9.5 34.5q-5 19 -11 39h-368zM336 498v228q0 11 2.5 23t10 21.5t20.5 15.5t34 6h188q31 0 51.5 -14.5t20.5 -52.5v-227h-327z" />
    <glyph glyph-name="pen" unicode="&#xe69e;" 
d="M341 18v0l-248 -46l50 244l198 -198v0zM731 803l-89 -89l198 -198l89 89zM188 260l198 -198l409 410l-198 198z" />
    <glyph glyph-name="plus" unicode="&#xe628;" 
d="M576 29q0 -27 -18.5 -45.5t-45.5 -18.5v0q-27 0 -45.5 18.5t-18.5 45.5v711q0 27 18.5 45.5t45.5 18.5v0q27 0 45.5 -18.5t18.5 -45.5v-711zM868 449q26 0 45 -19t19 -46v0q0 -26 -19 -45t-45 -19h-712q-26 0 -45 19t-19 45v0q0 27 19 46t45 19h712z" />
    <glyph glyph-name="delete" unicode="&#xe666;" 
d="M552 759v75h-75v-75h-375v-74h824v74h-374zM776 11h-524v599h-75v-674h674v674h-75v-599zM626 497h75v-411h-75v411zM477 497h75v-411h-75v411zM327 497h75v-411h-75v411z" />
    <glyph glyph-name="gear" unicode="&#xe737;" 
d="M947 480h-113q-10 33 -26 64l79 80q14 13 14 31.5t-14 31.5l-72 72q-13 14 -31.5 14t-31.5 -14l-80 -79q-31 16 -64 26v113q0 19 -13 32t-32 13h-102q-19 0 -32 -13t-13 -32v-113q-33 -10 -64 -26l-80 79q-13 14 -31.5 14t-31.5 -14l-72 -72q-14 -13 -14 -31.5t14 -31.5
l79 -80q-16 -31 -26 -64h-113q-19 0 -32 -13t-13 -32v-102q0 -19 13 -32t32 -13h113q10 -33 26 -64l-79 -80q-14 -13 -14 -31.5t14 -31.5l72 -72q13 -14 31.5 -14t31.5 14l80 79q31 -16 64 -26v-113q0 -19 13 -32t32 -13h102q19 0 32 13t13 32v113q33 10 64 26l80 -79
q13 -14 31.5 -14t31.5 14l72 72q14 13 14 31.5t-14 31.5l-79 80q16 31 26 64h113q19 0 32 13t13 32v102q0 19 -13 32t-32 13zM512 192q-80 0 -136 56t-56 136t56 136t136 56t136 -56t56 -136t-56 -136t-136 -56z" />
    <glyph glyph-name="download" unicode="&#xe617;" 
d="M841 421h-219v438h-220v-438h-219l329 -293zM183 -91h658v73h-658v-73z" />
    <glyph glyph-name="gear1" unicode="&#xe658;" 
d="M990 428h-1q-1 14 -11 24t-24 12h-22v0q-37 0 -54 34q-4 7 -5 15q-7 19 -15 36v0q-4 6 -7 14v0q-3 9 -3 20q0 25 17 42v0l12 12q1 0 1 1v0v0q11 11 11.5 26t-8.5 27v0q-15 17 -30 32q-15 16 -33 30v0q-10 9 -24 9.5t-24 -7.5l-9 -9l-8 -8h-1q-13 -13 -30.5 -16.5
t-33.5 3.5q-4 1 -9 4q-21 10 -43 18q-3 0 -7 2v0q-11 5 -20 13q-14 15 -17 35q-1 8 0 15v10q0 15 -9.5 26t-23.5 14h-7v0q-21 2 -40 2t-40 -2v0h-7q-14 -3 -23.5 -14t-9.5 -26v-17q0 -19 -11 -34.5t-28 -22.5q-2 0 -4 -1q-24 -8 -47 -19v0q-1 -1 -3 -2q-12 -6 -25 -6
q-25 0 -43 18v0l-12 12q-11 11 -25.5 12t-25.5 -7l-6 -4v-1q-16 -13 -29 -27q-15 -14 -27 -29v0l-5 -5q-8 -12 -7 -26.5t12 -25.5l12 -12q14 -14 17 -32.5t-5 -34.5q-1 -3 -2 -4q-11 -23 -19 -47q0 -2 -2 -5v0q-4 -12 -13 -20q-18 -18 -43 -18v0h-17q-15 0 -26 -9.5
t-14 -23.5v-7v0q-2 -19 -2 -40v0v0v-1v0q0 -20 2 -39v0v-7q3 -14 14 -23.5t26 -9.5v0h17q19 0 34.5 -10.5t21.5 -27.5v0q1 -3 2 -5v0q8 -24 19 -47v0q1 -1 2 -3q6 -12 6 -25q0 -25 -18 -43v0l-12 -12v0h-1v-1q-10 -10 -11 -24.5t7 -25.5q3 -4 5 -6q12 -15 27 -29v0
q14 -15 29 -27q2 -2 6 -5q23 -16 46 1l17 17v-1q14 14 32.5 17t34.5 -5q1 0 4 -1v0q23 -12 47 -20q2 0 4 -1q12 -5 21 -14q18 -18 18 -42v0v-18q0 -15 10.5 -26.5t25.5 -13.5v0q21 -2 44 -2t44 2v0q15 2 25.5 13.5t10.5 26.5v18q0 18 9.5 32.5t24.5 21.5q6 3 14 4
q20 8 38 16q5 4 11 6q10 4 21 4q23 0 40 -15l5 -5l10 -10h1q10 -11 25 -12t26 7v1q3 2 4 3q16 13 30 28q15 15 28 30l4 4q8 11 7 25.5t-10 24.5v0l-3 3l-11 11v0q-13 13 -16.5 31.5t3.5 34.5l3 6q11 22 19 45q1 4 2 6q4 11 13 20q18 18 43 18v0h17v0q16 0 27.5 11t12.5 27v0
q2 21 2 42q0 22 -2 44zM757 384v0q0 -41 -13 -80q-5 -14 -11 -28q-18 -36 -47 -66q-29 -29 -66 -47q-14 -7 -28 -12q-38 -13 -80 -13h-1q-41 0 -79 13q-15 5 -29 12q-36 18 -65 47q-30 29 -48 65q-7 14 -12 29q-13 39 -13 79q0 43 13 81q5 14 12 29q19 37 48 65q29 29 66 47
q14 7 28 12q38 13 79 13h1q41 0 80 -13q14 -5 28 -12q36 -18 66 -47q28 -29 46 -66q7 -14 12 -28q13 -39 13 -80v0v0z" />
    <glyph glyph-name="check" unicode="&#xe60d;" 
d="M771 507l-325 -325q-5 -5 -12 -4.5t-13 6.5l-21 21v0l-146 146q-5 5 -5 13t5 13l40 40q5 6 13 6t13 -6l115 -114l270 270q5 5 12 4.5t13 -6.5l39 -39q6 -6 6.5 -13t-4.5 -12zM512 864q-97 0 -186 -38t-153.5 -102.5t-102.5 -153.5t-38 -186.5t38 -186t102.5 -153
t153.5 -102.5t186 -38t186 38t153.5 102.5t102.5 153t38 186t-38 186.5t-102.5 153.5t-153 102.5t-186.5 38v0zM512 -36q-114 0 -210.5 56.5t-153 153t-56.5 210.5t56.5 210.5t153 153t210.5 56.5t210.5 -56.5t153 -153t56.5 -210.5t-56.5 -210.5t-153 -153t-210.5 -56.5v0z
" />
    <glyph glyph-name="map" unicode="&#xe627;" 
d="M820 338l-283 -421q-9 -13 -25 -13v0q-16 0 -25 13l-283 420q-52 83 -52 180q0 94 48 174t131 126.5t181 46.5t181 -46.5t131 -126.5t48 -174q0 -97 -52 -179zM512 804q-124 0 -212 -84t-88 -203q0 -80 43 -148l257 -381l258 382q42 68 42 147q0 119 -88 203t-212 84z
M512 353q-71 0 -121 48.5t-50 117t50 116.5t121 48t121 -48t50 -116.5t-50 -117t-121 -48.5zM512 623q-46 0 -78.5 -30.5t-32.5 -74t32.5 -74.5t78.5 -31t78.5 31t32.5 74.5t-32.5 74t-78.5 30.5z" />
    <glyph glyph-name="user" unicode="&#xe647;" 
d="M372 300q-153 93 -158 259q-3 122 81 210q60 63 140 84.5t159.5 -2t138.5 -87.5q62 -67 74 -159.5t-30 -177t-126 -127.5q23 -10 24 -11q181 -78 246 -262q4 -11 20 -87q2 -7 -1 -16q-4 -20 -24 -19q-21 0 -25 21q-2 7 -4.5 22t-5 27t-6.5 22q-75 225 -298 265
q-194 34 -337 -109q-89 -88 -106 -220q-3 -24 -21 -28q-13 -3 -22.5 5.5t-8.5 22.5q10 102 65 189q76 116 204 169q2 0 17 7zM512 320q100 0 171.5 70.5t72.5 169.5q2 105 -69 176.5t-169 74.5q-101 2 -175.5 -68.5t-75.5 -173.5q-2 -103 69.5 -176t175.5 -73z" />
    <glyph glyph-name="angle-right" unicode="&#xe64c;" 
d="M308 -96q-29 0 -49 20t-20 48.5t20 48.5l363 363l-363 363q-20 20 -20 48.5t20 48.5t48.5 20t48.5 -20l412 -412q20 -20 20 -48t-20 -48l-412 -412q-20 -20 -48 -20v0z" />
    <glyph glyph-name="loginout" unicode="&#xe608;" 
d="M512 -64q-91 0 -174 35.5t-143 95.5t-95.5 143t-35.5 174q0 139 77.5 251t202.5 162v-108q-76 -45 -122 -123.5t-46 -172t45 -173t122.5 -126t168.5 -46.5t168.5 46.5t122.5 126t45 172.5q0 94 -46 172.5t-122 123.5v108q125 -50 202.5 -162t77.5 -251q0 -91 -35.5 -174
t-95.5 -143t-143 -95.5t-174 -35.5v0zM512 832q23 0 39.5 -16.5t16.5 -39.5v-336q0 -23 -16.5 -39.5t-39.5 -16.5t-39.5 16.5t-16.5 39.5v336q0 23 16.5 39.5t39.5 16.5z" />
    <glyph glyph-name="bars" unicode="&#xe606;" 
d="M171 589h682q29 0 49 20t20 48t-20 48t-49 20h-682q-29 0 -49 -20t-20 -48t20 -48t49 -20zM853 452h-682q-29 0 -49 -20t-20 -48t20 -48t49 -20h682q29 0 49 20t20 48t-20 48t-49 20zM853 179h-682q-29 0 -49 -20t-20 -48t20 -48t49 -20h682q29 0 49 20t20 48t-20 48
t-49 20z" />
    <glyph glyph-name="delete-o" unicode="&#xe609;" 
d="M513.5 860q-96.5 0 -185 -38t-152.5 -102t-102 -152.5t-38 -185t38 -185t102 -152.5t152.5 -102t185 -38t185 38t152.5 102t102 152.5t38 185t-38 185t-102 152.5t-152.5 102t-185 38zM752 204l-60 -60l-179 179l-179 -179l-60 60l180 179l-180 179l60 60l179 -180
l179 180l60 -60l-179 -179z" />
    <glyph glyph-name="confirm" unicode="&#xe61b;" 
d="M132 462l235 -236l520 523l101 -102l-624 -628l-328 328zM132 462z" />
    <glyph glyph-name="bullhorn" unicode="&#xe601;" 
d="M818 97q-11 0 -16 9q-4 7 -2 14.5t9 11.5q66 39 105 105q40 68 40 147t-40 147q-38 66 -103 105q-7 4 -9 11.5t2 14t11.5 8.5t14.5 -2q74 -44 117 -118q44 -77 44 -166t-45 -166q-44 -75 -118 -119q-5 -2 -10 -2v0zM718 219q-11 0 -16 10q-4 6 -2 14t9 12q34 19 54 53
q20 35 20 76t-20 75t-53 54q-7 4 -9 11.5t2 14.5t11.5 8.5t14.5 -2.5q42 -25 67 -67q25 -43 25 -94t-26 -95q-25 -42 -67 -67q-5 -3 -10 -3v0zM571 -39q-36 0 -73 27l-37 26q-6 4 -7.5 12t3 14t12.5 7.5t14 -2.5l37 -26q11 -8 29 -15.5t30 -2.5q5 1 7 3t4.5 11t2.5 25v687
q-1 16 -3.5 24.5t-5.5 10.5t-8 5q-11 5 -28 -2t-28 -16v0l-226 -169q-22 -19 -54 -28.5t-47 -10.5t-26 -1q-36 0 -63.5 -24t-31.5 -60l-2 -13v-118l2 -14q4 -36 31.5 -60t63.5 -24h2q29 0 60.5 -10t43 -16.5t18.5 -10.5q4 -3 11 -8t23.5 -19.5t31.5 -31t32.5 -41.5t29.5 -51
q4 -7 1 -14.5t-10 -10.5t-14.5 -0.5t-10.5 9.5q-17 37 -47 71.5t-44 46t-24 17.5q-49 32 -103 31v0q-51 0 -89 34t-44 84v0l-1 16v122l1 15q6 51 44 84.5t89 33.5h1q7 0 18.5 0.5t38.5 8t46 22.5v1l226 169q13 10 29 18q38 17 66 4q18 -8 26 -21q11 -18 13 -51v-1v-688v-1
q0 -18 -2.5 -30t-11.5 -25.5t-25 -18.5q-10 -4 -21 -4v0v0zM571 -39z" />
    <glyph glyph-name="mark" unicode="&#xe67e;" 
d="M512 -96q-98 0 -186.5 38t-153 102.5t-102.5 153t-38 186.5t38 186.5t102.5 153t153 102.5t186.5 38t186.5 -38t153 -102.5t102.5 -153t38 -186.5t-38 -186.5t-102.5 -153t-153 -102.5t-186.5 -38zM512 800q-172 0 -294 -122t-122 -294t122 -294t294 -122t294 122
t122 294t-122 294t-294 122zM512 96q-27 0 -45.5 18.5t-18.5 45.5t18.5 45.5t45.5 18.5t45.5 -18.5t18.5 -45.5t-18.5 -45.5t-45.5 -18.5zM512 288q-13 0 -22.5 18.5t-9.5 45.5l-32 288q0 27 18.5 45.5t45.5 18.5t45.5 -18.5t18.5 -45.5l-32 -288q0 -27 -9.5 -45.5
t-22.5 -18.5z" />
    <glyph glyph-name="caret-left" unicode="&#xe607;" 
d="M713 -66l-530 450l530 450v-900z" />
    <glyph glyph-name="detail" unicode="&#xe61f;" 
d="M864 -64h-706q-40 0 -68 28t-28 68v0v706q0 40 28 68t68 28h547l124 -156q8 -9 8 -21q0 -13 -9.5 -22.5t-22.5 -9.5q-16 0 -26 13l-105 132h-516q-13 0 -22.5 -9.5t-9.5 -22.5v-706q0 -13 9.5 -22.5t22.5 -9.5h706q13 0 22.5 9.5t9.5 22.5v469q1 13 10.5 21.5t22 8.5
t22 -8.5t9.5 -21.5v-469q0 -40 -28 -68t-68 -28v0zM287 609h449v-64h-449v64zM287 384h320v-64h-320v64zM287 159h514v-64h-514v64z" />
    <glyph glyph-name="cancel" unicode="&#xe60f;" 
d="M512 -96q-98 0 -186.5 38t-153 102.5t-102.5 153t-38 186.5t38 186.5t102.5 153t153 102.5t186.5 38t186.5 -38t153 -102.5t102.5 -153t38 -186.5t-38 -186.5t-102.5 -153t-153 -102.5t-186.5 -38zM512 795q-79 0 -154.5 -34t-132 -90.5t-90.5 -132t-34 -154.5t34 -154.5
t90.5 -132t132 -90.5t154.5 -34t154.5 34t132 90.5t90.5 132t34 154.5t-34 154.5t-90.5 132t-132 90.5t-154.5 34zM727 165.5q-13 -13.5 -32 -13.5t-33 13l-145 146l-145 -146q-14 -13 -33 -13t-32.5 13.5t-13.5 32.5t14 32l145 146l-145 145q-14 13 -14 32t13.5 32.5
t32.5 13.5t33 -13l145 -146l145 146q14 14 33 14t32.5 -13.5t13.5 -32.5t-14 -33l-145 -145l145 -146q13 -13 13 -32t-13 -32.5z" />
    <glyph glyph-name="angle-up" unicode="&#xe738;" 
d="M992 179.5q0 -28.5 -20 -48.5t-48.5 -20t-48.5 20l-363 363l-363 -363q-20 -20 -48.5 -20t-48.5 20t-20 48.5t20 48.5l412 412q20 20 48 20t48 -20l412 -412q20 -20 20 -48.5z" />
    <glyph glyph-name="angle-left" unicode="&#xe739;" 
d="M716.5 864q28.5 0 48.5 -20t20 -48.5t-20 -48.5l-363 -363l363 -363q20 -20 20 -48.5t-20 -48.5t-48.5 -20t-48.5 20l-412 412q-20 20 -20 48t20 48l412 412q20 20 48.5 20z" />
    <glyph glyph-name="angle-down" unicode="&#xe73a;" 
d="M32 588q0 29 20 49t48.5 20t48.5 -20l363 -363l363 363q20 20 48.5 20t48.5 -20t20 -48.5t-20 -48.5l-412 -412q-20 -20 -48 -20t-48 20l-412 412q-20 20 -20 48v0z" />
  </font>
</defs>
</svg>
